<?xml version="1.0" encoding="utf-8"?>
<!-- Generator: Adobe Illustrator 24.2.1, SVG Export Plug-In . SVG Version: 6.00 Build 0)  -->
<svg version="1.1" id="Layer_1" xmlns="http://www.w3.org/2000/svg" xmlns:xlink="http://www.w3.org/1999/xlink" x="0px" y="0px"
	 width="595.3px" height="600.2px" viewBox="0 0 595.3 600.2" style="enable-background:new 0 0 595.3 600.2;" xml:space="preserve"
	>
<style type="text/css">
	.st0{fill:#C0C2E1;}
	.st1{fill:#7295CA;}
	.st2{fill:none;stroke:#B6CEEB;stroke-width:1.5315;stroke-linecap:round;stroke-linejoin:round;stroke-miterlimit:10;}
	.st3{fill:none;stroke:#E2E0F1;stroke-width:0.7927;stroke-linecap:round;stroke-linejoin:round;stroke-miterlimit:10;}
	.st4{fill:#A7A9D3;}
	.st5{fill:#263974;}
	.st6{fill:#4758A0;}
	.st7{fill:#FFFFFF;}
	.st8{fill:#878AC1;}
	.st9{fill:#4167AC;}
	.st10{fill:none;stroke:#A5B2DA;stroke-width:2.9953;stroke-linecap:round;stroke-linejoin:round;stroke-miterlimit:10;}
	.st11{opacity:0.4;fill:#B7A6CF;}
	.st12{fill:#4866AB;}
	.st13{fill:#3D5AA2;}
	.st14{fill:#37529B;}
	.st15{fill:none;stroke:#273987;stroke-width:1.4561;stroke-linecap:round;stroke-linejoin:round;stroke-miterlimit:10;}
	.st16{fill:#DEDDEF;}
	.st17{fill:#E1EAF4;}
	.st18{fill:#767BB7;}
	.st19{fill:#C6C6E1;}
	.st20{fill:#233666;}
	.st21{fill:#5164A9;}
	.st22{fill:#1F2646;}
	.st23{fill:#EA6366;}
	.st24{fill:#BB4142;}
	.st25{fill:#E35050;}
	.st26{fill:#E85454;}
	.st27{fill:#4E71B3;}
	.st28{fill:#2A3067;}
	.st29{fill:none;stroke:#263974;stroke-width:14.5607;stroke-linecap:round;stroke-linejoin:round;stroke-miterlimit:10;}
	.st30{fill:none;stroke:#273987;stroke-width:0.8332;stroke-linecap:round;stroke-linejoin:round;stroke-miterlimit:10;}
	.st31{fill:none;stroke:#FFFFFF;stroke-width:1.4561;stroke-linecap:round;stroke-linejoin:round;stroke-miterlimit:10;}
</style>
<path class="st0" d="M289.2,577.5l-14.4-0.5l-87.7-17.9c-1.3-0.2,0.5-10.4,1.5-11.4l58-68c0.9-1,2.7-1.6,4-1.4l116.5,18.3
	c1.3,0.2,1.6,1.2,0.6,2.1l-74.5,77.3C292.3,577.1,290.5,577.7,289.2,577.5z"/>
<path class="st0" d="M422.9,492.6l81.9-83.3c11.4-11.9,5.4-31.6-10.7-35.2l-232-51.6L422.9,492.6z"/>
<path class="st1" d="M180.6,279.9c0,0-58.4-18.7-61.1-57.9c-2.7-39.2-61.3-42.7-56.4-97C67.7,73.7,56,61.6,56,61.6
	s69.9,28.8,77.5,69.2c7.6,40.4,35.7,73.6,39.6,92.2c3.9,18.6,36.2,62.3,36.2,62.3L180.6,279.9z"/>
<path class="st2" d="M168.6,249.7c0,0-33.6-42.9-55.3-91c-12.4-27.5-19.2-56.3-44.2-84.2"/>
<path class="st1" d="M371.4,251.4c0,0-16.8-64.6,17.6-89.9c34.4-25.3,3.6-81.3,56.3-108.4c49.9-25.6,54.2-43.5,54.2-43.5
	s14.3,81.1-18.4,111.6c-32.7,30.5-46.9,75.7-61.7,90.1s-36.2,69.6-36.2,69.6L371.4,251.4z"/>
<path class="st3" d="M392.2,222.8c0,0,19.9-55.8,51.4-103.9c18.1-27.5,40.5-50.5,51.7-89.7"/>
<path class="st4" d="M389.5,267.5c0,0,27.3-110,81.5-143c54.2-33,85.6-7.2,85.6-7.2s-26.7,4.4-45.9,31.6
	c-19.2,27.2-37.9,42.6-51.4,51.3c-31,19.9-33.1,77.9-33.1,77.9L389.5,267.5z"/>
<path class="st3" d="M426.2,208c0,0,8.5-34.7,53.2-66.9c16.2-11.7,41.8-24.1,65.1-25.1"/>
<path class="st5" d="M401.8,499.9l-236.7-44.9c-7.7-1.5-12.9-7.5-13-15.1l-5.8-350.6c-0.2-13,13.6-24.7,26.9-22.7l236.5,35.3
	c8.1,1.2,13.6,7.3,13.8,15.3l6,360.3C429.7,490.6,415.3,502.4,401.8,499.9z"/>
<path class="st6" d="M392.3,504.1l-236.6-40.9c-7.7-1.5-12.9-7.5-13-15.1l-5.8-350.6c-0.2-13,13.6-24.7,26.9-22.7L400.3,110
	c8.1,1.2,13.6,7.3,13.8,15.3l6,360.3C420.2,498.9,405.7,506.6,392.3,504.1z"/>
<polygon class="st7" points="402.8,480.8 159.6,439.9 154,99.9 397.1,134.3 "/>
<path class="st8" d="M325.4,90.4l-13.7-2.9l-0.1-6c-0.3-16.6-15-33.3-32.8-37.1h0c-17.8-3.8-32.1,6.7-31.8,23.3l0.1,6l-13.7-2.9
	c-12.5-2.7-22.6,4.7-22.4,16.4v0c0.2,11.7,10.6,23.4,23.1,26.1l91.9,19.6c12.5,2.7,22.6-4.7,22.4-16.4v0
	C348.3,104.8,337.9,93.1,325.4,90.4z M280.6,75l-2.4-0.5c-4.4-0.9-8-5.1-8.1-9.2c-0.1-4.1,3.5-6.7,7.9-5.7l2.4,0.5
	c4.4,0.9,8,5.1,8.1,9.2C288.5,73.3,285,75.9,280.6,75z"/>
<path class="st0" d="M318.2,94.6l-13.7-2.3l-0.1-6c-0.3-16.6-15-32.6-32.7-35.7l0,0c-17.7-3-32.1,8.1-31.8,24.7l0.1,6l-13.7-2.3
	c-12.5-2.1-22.6,5.7-22.4,17.4v0c0.2,11.7,10.6,23,23.1,25.1l91.9,15.7c12.5,2.1,22.6-5.7,22.4-17.4v0
	C341,108,330.7,96.7,318.2,94.6z M273.4,81.1l-2.4-0.4c-4.4-0.7-8-4.7-8.1-8.8c-0.1-4.1,3.5-6.8,7.9-6.1l2.4,0.4
	c4.4,0.7,8,4.7,8.1,8.8C281.3,79.1,277.7,81.8,273.4,81.1z"/>
<polygon class="st9" points="378,222.9 173.8,189.5 172.9,130.2 377.1,163.5 "/>
<line class="st10" x1="175.3" y1="228.9" x2="238" y2="239.4"/>
<line class="st10" x1="175.9" y1="271.7" x2="238.7" y2="282.3"/>
<line class="st10" x1="176.6" y1="314.6" x2="239.3" y2="325.2"/>
<line class="st10" x1="177.3" y1="357.5" x2="240" y2="368"/>
<line class="st10" x1="177.9" y1="400.4" x2="378.4" y2="434"/>
<circle class="st7" cx="325.7" cy="37.2" r="5.5"/>
<circle class="st7" cx="231.3" cy="13.6" r="5.5"/>
<circle class="st7" cx="456.1" cy="391.7" r="5.5"/>
<circle class="st7" cx="57" cy="232.8" r="5.5"/>
<ellipse transform="matrix(0.1602 -0.9871 0.9871 0.1602 110.3972 744.3878)" class="st7" cx="492.7" cy="307.3" rx="8.2" ry="8.2"/>
<ellipse transform="matrix(0.9268 -0.3755 0.3755 0.9268 -49.3981 16.4825)" class="st7" cx="17.6" cy="135" rx="8.2" ry="8.2"/>
<path class="st11" d="M208.9,313.1l-0.9-7.4c-0.2-1.3-1-2.4-2.2-2.9c-0.5-0.8-1.1-1.6-1.8-2.4c-0.4-2.6-0.8-5.1-1.2-7.3
	c-0.8-4.8-2.5-8.1-4-10.2c-1-3.1-4.8-5.4-14.1-7.5c1.1-4.1,1.7-9,1.4-15c0-0.7-0.1-1.4-0.1-2c0-0.7,0-1.5-0.1-2.3
	c-0.6-5.7-2.1-8.3-3.8-9.4c-1.8-3.9-5.1-5.4-10.4-4.9l-1.1,0.1c-4.6,0.9-6.8,2.6-11,5.6c-1.6,1.1-3.1,4.1-3.4,6
	c0,0.1-0.1,0.3-0.1,0.4l0,0c0,0,0,0.2-0.1,0.6c-0.8,3.5-2,10.1-1.3,16.1c-5.3-2.2-9.4-3.6-11.2-4.3l0.2,182.3
	c0,7.5,4.7,13.5,12,15.4c2-13.6,5.1-40.3,0.6-49.9c-1.4-3-2.2-6.4-2.1-9.8c0.1-8,0.2-21.6,0.4-35c0.4,11.3,1.2,26.1,2.6,45.8
	c0,0,1.5,1.2,4.9,2.8c0.1,1.1,0.3,2.3,0.4,3.6c2,16.2,6.8,30.2,10,46.2l10.6,2.3c0.1-1.3,0.2-2.6,0.3-3.8c0.3,1.3,0.6,2.7,0.8,4
	l11.7,2.5c1.4-18.6,4.7-24.3-2.8-44.1c0,0,0.8-4.2,1.8-10.7c1.2,0,2.6,0.1,4.3,0.7c0,0,3.4-21.4,4-28.9c0.3-3.4,0.9-14.1,0.5-24.9
	c-0.3-6.5-1-12.9-2.4-17.9l0.8-0.7c8.3-6,6-20,5.9-22.4c0,0-0.4-2.6-1-6.5C208.2,316.4,209.2,314.8,208.9,313.1z"/>
<g>
	<g>
		<path class="st11" d="M328.8,405L328.8,405c-34.6-20.8-60.1-46.6-59.9-82.6l0.6-84.5l62.2-15.4l61.8,41l-0.6,84.5
			C393.5,360,369.1,392.2,328.8,405z"/>
		<g>
			<path class="st12" d="M306.7,406.3L306.7,406.3c-31.8-9-53.5-47-53.2-83l-13.4-73.1l14-11.3l62.2-15.4l61.8,41l-0.6,84.5
				C378.1,378.3,342,408.3,306.7,406.3z"/>
			<path class="st13" d="M306.7,406.3L306.7,406.3c-31.8-9-53.5-47-53.2-83l48.8-88.5l14-11.3l61.8,41l-0.6,84.5
				C378.1,378.3,342,408.3,306.7,406.3z"/>
			<path class="st14" d="M306.7,406.3L306.7,406.3c-31.8-9-53.5-47-53.2-83l110.6-47.6l14-11.3l-0.6,84.5
				C378.1,378.3,342,408.3,306.7,406.3z"/>
			<path class="st9" d="M299.4,417.2L299.4,417.2c-34.6-20.8-60.1-46.6-59.9-82.6l0.6-84.5l62.2-15.4l61.8,41l-0.6,84.5
				C364.1,372.2,339.6,404.4,299.4,417.2z"/>
			<path class="st15" d="M299.4,417.2L299.4,417.2c-34.6-20.8-60.1-46.6-59.9-82.6l0.6-84.5l62.2-15.4l61.8,41l-0.6,84.5
				C364.1,372.2,339.6,404.4,299.4,417.2z"/>
			<path class="st7" d="M298.7,408c-25.1-22.2-53.7-44.1-53.5-75.2l0.5-72.8l53.6-13.3l53.3,35.3l-9.2,47.4
				C343.3,360.4,298.7,408,298.7,408z"/>
			<path class="st16" d="M298.7,408L298.7,408l0.7-161.3l53.3,35.3l-0.5,72.8C349.4,370.2,331.4,392.9,298.7,408z"/>
		</g>
	</g>
	<g>
		<g>
			<g>
				<polygon class="st9" points="310.4,362.7 285.4,357.6 285.6,286.8 310.6,291.8 				"/>
			</g>
			<g>
				<polygon class="st9" points="264.4,331 264.5,304.5 331.5,318 331.5,344.5 				"/>
			</g>
		</g>
	</g>
</g>
<g>
	<path class="st0" d="M400.9,523.5c-2.1-3.3-6.6-4.1-10.1-1.8c0,0-0.1,0.1-0.1,0.1l0,0l-6.4,4.3c-0.2,0.1-0.5,0.3-0.7,0.4
		c0,0-0.1,0.1-0.1,0.1l0,0l-2.4,1.6c0,0,0,0,0,0l-68.4,46.6c-0.2,0.1-0.4,0.2-0.6,0.3l-4.8,9.1l0,0l-4.6,7.7l10.4-3.2l0,0l8.1-2.2
		c0.2-0.3,0.4-0.6,0.5-1l0.2,0.3l76.4-52.1l0,0c0,0,0.1-0.1,0.1-0.1C402,531.4,403,526.9,400.9,523.5z"/>
	<g>
		<path class="st5" d="M392.1,516.7c0,0-0.1,0.1-0.1,0.1l0,0l-12.3,8.3c-3.4,2.3-4.5,6.9-2.3,10.2c2.1,3.3,6.6,4.1,10.1,1.8
			l12.3-8.3l0,0c0,0,0.1-0.1,0.1-0.1c3.4-2.3,4.5-6.9,2.3-10.2C400,515.2,395.5,514.4,392.1,516.7z"/>
		<path class="st5" d="M399.8,528.7l-76.5,52.2l-5.6-6l74.5-50.8C403.4,516.5,406.1,523.5,399.8,528.7z"/>
		<path class="st5" d="M317.7,574.9c-1.4-3.3-3.5-0.4-3.8-5l69.9-47.6c5.5-1.9,7.8-0.8,8.7,1.6L317.7,574.9z"/>
		<path class="st17" d="M313.4,570.2l-8.5,16.3l17.7-4.8C325.9,577.4,316.8,567.5,313.4,570.2z"/>
		<path class="st5" d="M304,587l4.7-7.7c3.2,0.1,5.1,1.6,5.8,4.6L304,587z"/>
	</g>
</g>
<g>
	<polygon class="st18" points="81.1,293 69.1,336.3 79.2,354 94.6,327 	"/>
	<path class="st18" d="M69.1,336.3l-19.7,37.5l7.9,7.8l26.1-27.7c2.1-1.7-0.5-1.2-0.3-4.1L82.8,335L69.1,336.3z"/>
	<g>
		<path class="st0" d="M78.5,504.8c10.4-5.6,27.2-6.3,37.3-1.6c3.4,1.6,5.6,3.6,6.7,5.7c9.7-4.8,24.2-5.6,34.1-2
			c2.8-0.5,5.7-0.8,8.7-0.9c18.7-0.8,34.1,5.2,34.5,13.4c0.4,8.3-14.5,15.6-33.2,16.5c-10.9,0.5-20.6-1.3-27-4.6
			c-6.8,0.3-13.5-0.7-18.6-3.1c-3.4-1.6-5.6-3.6-6.7-5.7c-10.5,5.2-26.5,5.7-36.4,1.1C67.8,518.9,68.1,510.5,78.5,504.8z"/>
		<path class="st19" d="M123.8,292c0,0,53.7,18.4,64.6,38.8l-10.1,9.9l-63.1-20.2L123.8,292z"/>
		<path class="st20" d="M112.1,282.8c0,0,8.8,1.7,9.3,5.6c0.4,3.9,0.1,7.5,0.1,7.5l-27.4-1.6l1.5-10.8L112.1,282.8z"/>
		<path class="st20" d="M88.6,505.9l13.7-10.8c2.1-0.8,4.7-1.1,7.8-0.4c1.4,0.3,1.5-0.7,1.5,0.6l1.7,5.3c1.5,3.5-1.1,5.8-5.1,7.3
			l-13.6,4.8c-2.8,1.1-6.9,0.8-9.1-0.7l-0.6-0.4C82.7,510.1,85.6,507.7,88.6,505.9z"/>
		<path class="st21" d="M111.6,496.2c0.1,4.2-10,4.2-10.1,0l-0.4-13.5l10.1,0L111.6,496.2z"/>
		<path class="st20" d="M112.8,491c-4,3.4-8.2,3.5-12.7,0.4c0,0-14.3-83.1-15.7-126.1l30.9-11.8c-1.7,26.5-6.6,70.2-6.6,70.2
			C119.8,444.8,113.8,472.1,112.8,491z"/>
		<path class="st22" d="M115.4,353.5l-8.7,3.3c-1.1,15.7-3.1,36.3-4.6,50.6c-1,9.3,0,18.7,2.4,27.8c5,19,0.7,40.5-0.2,56.3
			c-0.6,0.5-1.2,0.9-1.8,1.3c3.6,1.6,7,1,10.3-1.8c0.9-16.8,5.8-40.2-1-60.1c-2-5.9-2.5-12.2-1.9-18.3
			C111.5,397.9,114.2,371.7,115.4,353.5z"/>
		<path class="st21" d="M134.7,503.3c0.4,4.1-9.7,5.7-10.1,1.6l-1.3-13.3l10.1-1.6L134.7,503.3z"/>
		<path class="st20" d="M135.6,498.3c-4.5,3.7-8.7,4.6-12.6,2.1c0,0-2.4-26.8-6.8-55.3c-3.4-22-8.9-44-9.6-61.7l30.2-18.6
			c-1,15.8-1.3,50.4-1.4,65.3c0,3.5,0.7,6.8,2.1,9.8C143.7,453.3,135.6,498.3,135.6,498.3z"/>
		<path class="st8" d="M81.7,367.4c0.2-14.8-0.9-36.1-2.8-54.5c-1.5-18.1,1.4-29.2,26-28.8l6.6,1.8c19.3,10.7,24.3,6.9,25.4,30.8
			l-1.8,48.7C134.8,388.5,80.1,394.6,81.7,367.4z"/>
		<path class="st18" d="M136.9,316.7l-1.8,48.7c-0.2,13.5-18.8,21.2-34.1,19.9C118.4,375.3,129.3,350,136.9,316.7z"/>
		<g>
			<g>
				<path class="st7" d="M120,289.7c0,0,1.3,6.7-8.9,13c-5.2,3.3-7.7,8.4-8.9,12.6c-0.7,2.4-2.2,1.3-2.6-1.2
					c-0.9-6.5-1.3-8.4-2.9-13.2c-2.6-7.7,0.6-19.5,1-19.7C98.3,281.2,120,289.7,120,289.7z"/>
			</g>
		</g>
		<path class="st20" d="M105.6,285.5c0,0-9.8,3.6-7.3,12.3l0.5,10.5c0,0-8-11.4-4.7-22.8C97.3,274.2,105.6,285.5,105.6,285.5z"/>
		<path class="st20" d="M101.6,285c0,0,1.9,2.7,3,3.3c1.1,0.5,16.5-7.1,14.4-19.8c-1.3-8.1-16.7-5.4-16.7-5.4L101.6,285z"/>
		<path class="st23" d="M108.7,296.5l-0.8,0.2c-2.6,0.5-5.1-1.2-5.7-3.8l-2.9-14.6c-0.5-2.6,1.2-5.1,3.8-5.7l0.8-0.2
			c2.6-0.5,5.1,1.2,5.7,3.8l4.9,13.6C114.9,292.5,111.3,296,108.7,296.5z"/>
		<path class="st24" d="M100.9,286.2c0,0,6.3-0.1,10.2-6.2c0,0-3.7,9.3-9.4,10.3L100.9,286.2z"/>
		<path class="st20" d="M114.8,283.8c0,0,7.2,7.7-5.3,14.9c0,0-4.8,5.1-4.7,10.5c0,0,4.2-3.5,6.6-5.4
			C113.8,301.9,131.9,289.9,114.8,283.8z"/>
		
			<ellipse transform="matrix(1.778756e-02 -0.9998 0.9998 1.778756e-02 -175.3057 365.4029)" class="st23" cx="98.3" cy="271.9" rx="14.4" ry="8.2"/>
		<path class="st23" d="M111.9,279.7c-2.9,6.3-14.2,9.7-17.7,4.8c-3.5-4.9,0-16,2.8-22.3c2.9-6.3,8-7.4,11.5-2.5
			C112,264.6,114.8,273.4,111.9,279.7z"/>
		<path class="st20" d="M105.3,263.7c0,0-2.1,12.6,7.8,16c0,0,11.7-6,4-18.6c-6.8-11.2-19-3.6-19-3.6L105.3,263.7z"/>
		<path class="st20" d="M90.2,271.5c0,0,1.6-5.4,8.4-7.3l-5.1-3.4C93.5,260.8,88.1,261.7,90.2,271.5z"/>
		<path class="st20" d="M110.2,271.5c-2.1-3.1-6.8-3.3-13.6-1.2c-1,0.3-2.2,0.4-3.2,0.2c-4.9-1.3-5.4-7.5-5.4-7.5
			c-0.9-4.2,2-5.9,6.2-6.8l10.9-2.2c6.2-1.3,11.8,4,12.7,8.2l0.2,0.7C118.9,267,114.4,270.6,110.2,271.5z"/>
		
			<ellipse transform="matrix(0.9986 -5.218256e-02 5.218256e-02 0.9986 -14.3626 6.196)" class="st23" cx="111.5" cy="278.1" rx="3" ry="3"/>
		<path class="st20" d="M124.6,504.4l0.6,8.4c0.1,1,1,6.2,1.4,7.1c1.2,2.6,3.3,3.5,5.2,3.5c2.6,0,7.9-4.9,6.1-10.5
			c-1.6-4.9-3.3-10-3.3-10C130.9,504.9,127.5,505.6,124.6,504.4z"/>
		<g>
			<g>
				<path class="st7" d="M97.4,283.7L97.4,283.7c-1.4-0.3-2.7-2.3-3-4.4l5,1.3C99.7,282.7,98.8,284.1,97.4,283.7z"/>
			</g>
		</g>
		<path class="st20" d="M143.9,519.9L156,504c1.9-1.2,5.6-1.8,8.7-1.4c1.4,0.2,2.1,1,2.3,2.4l0.5,2.5c0.6,4.2,1.2,5.6-1.3,7.1
			l-15.2,9.1C147.9,526.4,138.7,525.7,143.9,519.9z"/>
		<path class="st25" d="M156.6,505.5c0,0-6.9,9.4-5.9,10c4.1,2.4,13.1-7.2,13.1-7.2S158.3,505,156.6,505.5z"/>
		<path class="st25" d="M163.8,508.3c-1.5,3.7-7.3,1.6-8.1-2.3c-2.7-21.6-9.5-38.4-12-58.6c-2.8-22.7-1.2-23.1-5.6-57.9l21.4,2.7
			c-0.7,25.1,1.7,56.7,1.7,56.7C170,473,164,478.4,163.8,508.3z"/>
		<path class="st24" d="M150.2,446.5c0,0,3.6,22.3,10.2,27c6.6,4.8-1.2-26.1-1.2-26.1L150.2,446.5z"/>
		<path class="st20" d="M137.9,278.1c0,0-8.3,29.1,8,30.2c16.3,1.1,16.8-21.2,16.8-21.2L137.9,278.1z"/>
		<path class="st23" d="M130.5,393.5L130.5,393.5c3,0.4,5.7-1.3,6-3.7l-1.2-9.2c0.3-2.4-0.1-0.7-3.2-1.1h0c-3-0.4-3.1-2.7-4.7,1.7
			l-0.7,6.8c-0.1,0.9-0.1,1.8,0.2,2.7C127.4,392.4,128.2,393.2,130.5,393.5z"/>
		<path class="st23" d="M132.3,316.9l-4.2,27.3c0,0-3,10.2-0.3,35.6l7,1.2l5-33.4l0-37.1l0,0C136.3,309.1,132.8,313.3,132.3,316.9z"
			/>
		<path class="st20" d="M166.8,527.8l0.6-16.8c0.8-1.3,3-2.2,5.3-2c1,0.1-0.1-0.5,0.7,0.9l2.7-2.6c2.5,4.2,3.8,4.7,4,8.6
			c-1.4,6.9-3.6,11.8-6.5,15.3C172.8,534.1,166.1,534,166.8,527.8z"/>
		<path class="st23" d="M168,511.7c0,0,1.7,9,2.8,9c5.5-0.1,5.8-8.4,5.8-8.4S168.8,511,168,511.7z"/>
		<path class="st23" d="M176.5,512.9c-1.5,4-7.7,2.8-8.5-1.1c-3-22.1-7.9-35.3-10.7-56c-3.1-23.2,6.2-25.3,1.4-61l22.1,0.5
			c-0.5,26.1-6.5,59.3-6.5,59.3C183.4,478.6,176.4,481.8,176.5,512.9z"/>
		<path class="st8" d="M137.2,360.3c0,0-4.7-1.6,1.2,80.7c0,0,5.4,4.5,20,7.6c13.7,2.9,10.9-7.4,22-4.1c0,0,3.4-21.5,4-28.9
			c0.6-7.4,3.2-50.7-9-51.6C163.1,363.2,137.2,360.3,137.2,360.3z"/>
		<path class="st18" d="M180.3,444.5c0,0,3.4-21.4,4-28.9c0.6-7.4,3.2-50.7-9-51.6c-2.8-0.2-6.3-0.5-10-0.9
			c1.2,7.1,3.4,18.8,7.6,37.9c5.6,25.4-2.2,40-10.1,47.8C173.9,448.1,170.4,441.6,180.3,444.5z"/>
		<path class="st23" d="M135.7,321.1c0,0-1.4-19.3,9.2-19.8c1.5-0.1,3.8-1.6,5.5-1.7c8.8-0.2,7.6-0.1,14.2,1.9
			c2.5,0.7,4.5,7.6,4.4,10.2l4.5,7.5C159.5,324.9,146.3,327.5,135.7,321.1z"/>
		<path class="st7" d="M143.1,300.8c0.9-0.2,1.6,0.7,1.2,1.6c-1.2,2.6-3,7.2-4.3,11c-1.3,3.6,1.1,7.4,4.9,7.7
			c17.9,1.3,16.9-21,17.5-20.7l3.6,1.1c19.2,4.2,15.1,9.7,11.3,20.1c0,0-4.2,18.2-3.8,25.4c0.3,6.3,6.8,15.6,8,17.5
			c1.6,2.5-5.5,19.5-30,18.7c-19.3-0.6-17.7-8.7-18.2-19.1c-0.3-6.6,2.3-24.3,1.8-29.5c-0.5-5.2-4.8-8.7-2.7-17.3
			c1.2-4.7,2.6-9,3.7-11.8c0.9-2.3,2.8-3.9,5.2-4.4L143.1,300.8z"/>
		<path class="st23" d="M153,305.3l-0.6,0.1c-2.1,0.4-4-0.9-4.3-3l-1.6-11.6c-0.3-2.1,1.2-4.1,3.2-4.5l0.6-0.1
			c2.1-0.4,5.3,0.2,5.6,2.3l2.3,12.2C158.4,302.9,155.1,304.9,153,305.3z"/>
		<path class="st24" d="M147.3,297.5c0,0,5-0.1,8.4-5c0,0-3.3,7.4-7.9,8.2L147.3,297.5z"/>
		<path class="st20" d="M137.4,280c0,0-2.6,12.3,4.5,15.1c7,2.8,9.4-22.3,9.4-22.3L137.4,280z"/>
		<path class="st23" d="M158.5,273.7c-1.7-3.2-4.5-3.9-7.1-2.3c-2.5-1.2-5.6,0.2-8,4.1c-3.3,5.4-4.5,14.3-2,18.9
			c1.1,2,2.9,2.6,4.7,2.7c1.6,0.1,3.3-0.1,4.9-0.6c5.7-1.8,5.8-1,8-4.6C162.4,286.5,161,278.3,158.5,273.7z"/>
		<path class="st20" d="M154.8,275.5c2,5.5,2,18.1,2.3,19.7c0,0,11.4-0.2,10.1-13.1c-1.6-16.1-10.9-8.1-10.9-8.1L154.8,275.5z"/>
		<path class="st20" d="M158.7,277.8c-6.2-2.7-11.3-4.8-21.1,3.2c-0.7-1.4,1.3-5.9,3.3-7.4c4.3-3,6.4-4.7,11-5.6l1.1-0.1
			c6.7-0.6,10.2,2,11.6,8.5c0.1,0.6,1.2,3.2,1.2,3.7l-2.1-0.8C163.9,283,162.5,277.3,158.7,277.8z"/>
		<g>
			<g>
				<path class="st7" d="M145.2,293.3L145.2,293.3c-1.3-0.4-2.4-2.3-2.5-4.3l4.6,1.4C147.4,292.5,146.5,293.7,145.2,293.3z"/>
			</g>
		</g>
		<path class="st16" d="M181.6,364.8c-1.2-1.9-6.5-11.4-6.8-17.7c-0.2-4.1-1.5-22.9-0.3-28.7c-4.9,12.2-5.7,19.9-14.3,21.7
			c2.2,18.8,2.1,38.7-8.7,43.3C172,388.1,183,367,181.6,364.8z"/>
		<path class="st23" d="M155.9,398.8L155.9,398.8c2.8,1.2,5.8,0.4,6.8-1.8l1.5-9.1c1-2.2,0.1-0.8-2.7-2h0c-2.8-1.2-2.2-3.5-5,0.3
			l-2.6,6.3c-0.3,0.8-0.6,1.7-0.6,2.6C153.3,396.7,153.8,397.8,155.9,398.8z"/>
		<path class="st23" d="M184.2,319.2c-1.7-10.1-7.2-13.4-7.2-13.4l-3.3,15.7c-1.5,7.2-1.6,14.6-0.5,21.8l1.9,11.8
			c0.5,3.2-0.2,6.3-2,8.9l-15.2,21.2l4.2,3.8l21-16.7c8.3-6,6-20,5.9-22.4C189.1,349.8,186.2,330.6,184.2,319.2z"/>
		<path class="st20" d="M157.1,295.3c0,0-0.9,3.9-2.2,8.7c-1.5,5.7,6.5,8.8,9.1,3.5c2.4-4.9,3.9-11.6,3.5-20.9
			c-0.7-15.5-5.1-4.4-5.1-4.4L157.1,295.3z"/>
		<circle class="st23" cx="158" cy="289.2" r="3.3"/>
		<path class="st23" d="M186.9,343.7L186.9,343.7c2.2-0.4,3.7-2.5,3.5-4.6l-0.9-7.4c-0.3-2.1-2.2-3.5-4.4-3.1l0,0
			c-2.2,0.4-3.7,2.5-3.5,4.6l0.9,7.4C182.7,342.7,184.7,344.1,186.9,343.7z"/>
	</g>
</g>
<g>
	<path class="st26" d="M23.3,434.1L23.3,434.1c1.6,0.1,3.1-1.1,3.3-2.7l0.6-5.5c0.2-1.6-1-2.9-2.7-3l0,0c-1.6-0.1-3.1,1.1-3.3,2.7
		l-0.6,5.5C20.5,432.7,21.7,434.1,23.3,434.1z"/>
	<path class="st26" d="M42.5,367.6c0,0,0.3,14.4-3.1,25c-1.5,4.6-4.5,12-7.3,18.8c-3.7,8.8-4.8,14.7-4.8,14.7l-5.9-0.3
		c0,0,2.3-10.1,3.7-21c1.2-9.6,0.2-19.4,1.9-22.2C30.5,376.5,42.5,367.6,42.5,367.6z"/>
	<path class="st27" d="M28,371.9c0.3,0.6-6.2,21.2-6.2,21.2s11.4,8.5,15.8-1c4.4-9.6,8.7-24.7,6.8-28C42.4,360.7,28,371.9,28,371.9z
		"/>
	<path class="st0" d="M78.8,510c-6.3-3.2-16.7-3.2-23.6,0c-0.7-1.4-2.1-2.7-4.2-3.8c-6.5-3.3-17.3-3.2-24.2,0.3
		c-6.9,3.4-7.2,8.9-0.7,12.2c6.3,3.2,16.7,3.2,23.6,0c0.7,1.4,2.1,2.7,4.2,3.8c6.5,3.3,17.3,3.2,24.2-0.3
		C84.9,518.8,85.3,513.3,78.8,510z"/>
	<path class="st7" d="M28.3,510.2l10.9-8.3c1.7-0.6,3.7-0.8,6.1-0.3c1.1,0.3,1.2-0.5,1.2,0.4l1.2,4.1c1.1,2.7-1,4.5-4.2,5.6
		l-10.7,3.6c-2.2,0.8-5.4,0.6-7-0.6l-0.5-0.3C23.6,513.4,26,511.6,28.3,510.2z"/>
	<path class="st21" d="M46.4,502.8c0,3.2-7.9,3.1-7.9-0.1l0.1-10.5l7.9,0.1L46.4,502.8z"/>
	<path class="st20" d="M49.6,497.9c-2.7,2.1-9.6,1.8-12.4-0.3c0,0-4.7-53.5-3.9-81.3l20.5-7C51.7,426.4,51,485.7,49.6,497.9z"/>
	<path class="st21" d="M73,506.1c0.4,3.1-7.1,4-7.5,1l-1.3-10l7.5-1L73,506.1z"/>
	<path class="st20" d="M74.5,502.3c-2.8,2.4-9.2,2.2-11.8,0.5c0,0-4.4-17.2-8.5-36.2c-3.2-14.8-4.5-29.5-5.7-41.3l18.9-11.6
		c0.1,10.5,1.4,33.5,2,43.4c0.1,2.3,0.8,4.6,1.8,6.6C75.8,472.6,74.5,502.3,74.5,502.3z"/>
	<path class="st27" d="M30.2,422.7c0-10.9-1.7-22.2-3.3-35.9c0-18.9,1.7-24.8,19.8-25.9l4.9,1.3c14.3,7.7,21.6,7.4,19,22.5l-1,36
		C69.6,437.9,29.2,442.8,30.2,422.7z"/>
	<path class="st12" d="M70.6,384.7l-1,36c0,10-13.8,15.8-25,15C57.4,428.2,65.3,409.4,70.6,384.7z"/>
	<g>
		<g>
			<path class="st7" d="M57.5,365.1c0,0,0.7,5.2-6.8,9.4c-3.9,2.2-9.3,1.6-10.3-2.2c-1.6-6,1.1-14.9,1.4-14.9
				C42.1,357.4,57.5,365.1,57.5,365.1z"/>
		</g>
	</g>
	<path class="st28" d="M52.5,359.5c0,0-0.8,2.5-1.6,3.2c-0.8,0.7-14.1-1.7-15.4-11.9c-0.8-6.5,11.5-7.8,11.5-7.8L52.5,359.5z"/>
	<path class="st26" d="M49.2,368.8l0.5,0c1.8-0.2,3.2-1.8,3-3.6l-0.9-10.3c-0.2-1.8-1.8-3.2-3.6-3l-0.5,0c-1.8,0.2-3.2,1.8-3,3.6
		l-0.6,10C44.2,367.3,47.3,368.9,49.2,368.8z"/>
	<path class="st24" d="M52.3,360.4c0,0-4.2,1.2-8-2.1c0,0,4.3,5.5,8.3,5L52.3,360.4z"/>
	
		<ellipse transform="matrix(0.9547 -0.2977 0.2977 0.9547 -101.4527 31.2971)" class="st26" cx="52" cy="348.8" rx="6.5" ry="11.4"/>
	<path class="st26" d="M43.4,357.7c3.6,4.1,13,4.2,14.6-0.3c1.6-4.5-3.5-12.2-7.1-16.3c-3.6-4.1-7.7-3.9-9.3,0.6
		C40,346.2,39.9,353.6,43.4,357.7z"/>
	<path class="st28" d="M44.9,344.1c0,0,4.4,9.1-2.4,13.9c0,0-10.2-1.9-7.2-13.3c2.7-10,13.6-7,13.6-7L44.9,344.1z"/>
	<path class="st28" d="M58.1,346.6c0,0-2.4-3.7-8-3.7l3.1-3.7C53.2,339.2,57.6,338.7,58.1,346.6z"/>
	<path class="st28" d="M42.9,351c0.9-2.8-3.8-1.8,1.8-1.8c0.9,0,4.1-4.1,4.8-4.5C53,342.7,57,341,57,341c-0.3-3.4-1.9-5.5-5.3-5.2
		l-8.8,0.7c-5,0.4-8.1,5.7-7.8,9.1l0,0.6C35.3,349.6,39.5,351.3,42.9,351z"/>
	<ellipse transform="matrix(0.7958 -0.6055 0.6055 0.7958 -206.0175 99.1092)" class="st26" cx="44" cy="355.1" rx="3.2" ry="3.2"/>
	<path class="st7" d="M65.4,506.6l0.7,6.4c0.1,0.8,0.9,4.7,1.3,5.4c1,2,2.5,2.7,4,2.8c2,0.1,5.8-3.5,4.3-7.8
		c-1.3-3.7-2.7-7.6-2.7-7.6C70.2,507.1,67.7,507.6,65.4,506.6z"/>
	<g>
		<g>
			<path class="st7" d="M55.4,357.5L55.4,357.5c1-0.6,1.5-2.4,1.3-4l-3.5,2.1C53.4,357.2,54.4,358.1,55.4,357.5z"/>
		</g>
	</g>
	<path class="st26" d="M76.6,439.8L76.6,439.8c-1.6-0.1-3-1.5-3-3.1l0-5.5c0-1.6,1.3-2.8,3-2.7h0c1.6,0.1,3,1.5,3,3.1l0,5.5
		C79.6,438.7,78.3,439.9,76.6,439.8z"/>
	<path class="st26" d="M56.7,371.4c0,0,2.6,14.1,8.1,23.8c2,3.6,7.5,8,9.1,14.1c1.6,6.2,0.2,20.8,0.2,20.8l4.9,0.4
		c0,0,6.3-19.7,3.1-29.1c-3.4-9.9-4.7-16-7.1-18.6C70.3,377.7,56.7,371.4,56.7,371.4z"/>
	<path class="st27" d="M69.1,372.4c-0.3,0.6,13,21.2,13,21.2s-13.8,13.5-18.7,4.1c-4.9-9.4-7.9-25.6-6.1-29
		C59.1,365.5,69.1,372.4,69.1,372.4z"/>
</g>
<path class="st29" d="M461.9,519.6l27-30.5c13.6-15.4,21.2-35.3,21.2-55.9V300.3"/>
<g>
	<ellipse class="st0" cx="472.2" cy="532" rx="27.3" ry="15.6"/>
	<path class="st6" d="M428.9,520.7v12.1c0,8.6,12.2,15.6,27.3,15.6c15.1,0,27.3-7,27.3-15.6v-11.1L428.9,520.7z"/>
	<ellipse class="st9" cx="456.2" cy="521.7" rx="27.3" ry="15.6"/>
	<ellipse class="st7" cx="456.2" cy="520.7" rx="16.1" ry="9.2"/>
</g>
<g>
	<path class="st7" d="M509.6,292.3l-2.9-0.6c-23.3-4.5-43.3-11.7-44.6-37.6l-3.2-81.7c-0.2-4.3,2.7-8.4,6.6-7.7l21.3,3.4l5.9-13.7
		l-28-3.8c-8.3-1.6-20.4,9.9-20,19.1l4.4,89.2c1.3,25.9,20.8,41.3,44.1,45.8l31.3,6L509.6,292.3z"/>
	<path class="st5" d="M509.6,292.3l-2.9-0.6c-23.3-4.5-43.3-11.7-44.6-37.6l-0.7-18.2c-2.7,3.7-13.3,2.5-13.4-1.1l1.2,24.2
		c1.3,25.9,20.8,41.3,44.1,45.8l31.3,6L509.6,292.3z"/>
	<path class="st5" d="M503.1,172.1l-17.4-3.3c-3.9-0.7-5.8-4.9-4.3-9.3v0c1.5-4.4,5.9-7.4,9.7-6.6l17.4,3.3c3.9,0.7,5.8,4.9,4.3,9.3
		v0C511.4,169.9,507,172.9,503.1,172.1z"/>
	<path class="st6" d="M531.2,272.7l-37.4-7.1c-2.4-0.5-4.6,0.2-6.2,1.7l0,0l0,0c-0.4,0.3-0.7,0.7-1.1,1.1l-9,10.6l7.1,7.9l0.1,1.2
		c0.4,7.4,5.3,14.3,11,15.4l16.1,3.1l17.5,12.6l10-10.1l0,0c2.3-2,3.7-5.5,3.5-9.8l-0.6-11.2C541.8,280.7,536.9,273.8,531.2,272.7z"
		/>
	<path class="st7" d="M538.9,291.6c14.1,5.4,34-10.5,33.3-36l-1.7-63.3c-0.1-4.2-3.2-8.4-6.9-9.3l-19.4-4.5l5.9-13.9l19.1,4.9
		c7.9,2,14.5,11,14.8,20l2,74.6c0.8,28.3-31.3,48.1-53.7,42.3C530,305.1,531.2,294.1,538.9,291.6z"/>
	<path class="st5" d="M538.9,291.6c14.1,5.4,34-10.5,33.3-36c6,3.1,12.6,1.3,13.4-2.7l0.3,11.2c0.8,28.3-31.3,48.1-53.7,42.3
		C530,305.1,531.2,294.1,538.9,291.6z"/>
	<path class="st5" d="M525.2,175.9l17.9,3.4c4,0.8,8.2-2.3,9.4-6.9v0c1.2-4.5-1.1-8.9-5.1-9.7l-17.9-3.4c-4-0.8-8.2,2.3-9.4,6.9v0
		C519,170.8,521.2,175.2,525.2,175.9z"/>
	<path class="st9" d="M523.9,321.3l-37.4-7.1c-5.7-1.1-10.7-8-11-15.4l-0.6-11.2c-0.4-7.4,4-12.5,9.7-11.4l37.4,7.1
		c5.7,1.1,10.7,8,11,15.4l0.6,11.2C534,317.3,529.6,322.4,523.9,321.3z"/>
</g>
<g>
	<path class="st5" d="M330.5,506.9l-0.3,0.1l-82.6-14.7c-1.1-0.2-2.6,0.3-3.5,1.1l-56.7,55l-11.1,3.6l-0.3,6.3c0,0.5,0.3,0.9,0.7,1
		l99.2,17.5c1.1,0.2,2.6-0.3,3.5-1.1l60.9-59.1c1.1-1,1.7-2.5,1.8-3.9l0.4-8.7C342.3,502.5,330.5,506.9,330.5,506.9z"/>
	<path class="st7" d="M242.3,486.4c-0.2,0.1-0.4,0.3-0.6,0.5l-64.9,64c-0.8,0.8-0.6,1.6,0.5,1.8l98,17.2c1.1,0.2,2.6-0.3,3.4-1.1
		l62.9-63.1c0.4-0.4,0.9-1.3,0.9-1.3L242.3,486.4z"/>
	<g>
		<path class="st0" d="M247,503.9l-12.4-2.2c-0.9-0.2-1.1-0.8-0.4-1.5l6.8-6.7c0.7-0.7,2-1.1,2.9-0.9l12.4,2.2
			c0.9,0.2,1.1,0.8,0.4,1.5l-6.8,6.7C249.2,503.7,247.9,504.1,247,503.9z"/>
		<path class="st0" d="M272.2,508.4l-12.4-2.2c-0.9-0.2-1.1-0.8-0.4-1.5l6.8-6.7c0.7-0.7,2-1.1,2.9-0.9l12.4,2.2
			c0.9,0.2,1.1,0.8,0.4,1.5l-6.8,6.7C274.4,508.1,273.1,508.5,272.2,508.4z"/>
		<path class="st0" d="M297.4,512.8l-12.4-2.2c-0.9-0.2-1.1-0.8-0.4-1.5l6.8-6.7c0.7-0.7,2-1.1,2.9-0.9l12.4,2.2
			c0.9,0.2,1.1,0.8,0.4,1.5l-6.8,6.7C299.5,512.5,298.3,512.9,297.4,512.8z"/>
		<path class="st0" d="M322.5,517.2l-12.4-2.2c-0.9-0.2-1.1-0.8-0.4-1.5l6.8-6.7c0.7-0.7,2-1.1,2.9-0.9l12.4,2.2
			c0.9,0.2,1.1,0.8,0.4,1.5l-6.8,6.7C324.7,517,323.4,517.4,322.5,517.2z"/>
		<path class="st0" d="M231.5,519.2l-12.4-2.2c-0.9-0.2-1.1-0.8-0.4-1.5l6.8-6.7c0.7-0.7,2-1.1,2.9-0.9l12.4,2.2
			c0.9,0.2,1.1,0.8,0.4,1.5l-6.8,6.7C233.7,519,232.4,519.4,231.5,519.2z"/>
		<path class="st0" d="M256.7,523.6l-12.4-2.2c-0.9-0.2-1.1-0.8-0.4-1.5l6.8-6.7c0.7-0.7,2-1.1,2.9-0.9l12.4,2.2
			c0.9,0.2,1.1,0.8,0.4,1.5l-6.8,6.7C258.9,523.4,257.6,523.8,256.7,523.6z"/>
		<path class="st0" d="M281.9,528.1l-12.4-2.2c-0.9-0.2-1.1-0.8-0.4-1.5l6.8-6.7c0.7-0.7,2-1.1,2.9-0.9l12.4,2.2
			c0.9,0.2,1.1,0.8,0.4,1.5l-6.8,6.7C284,527.8,282.8,528.2,281.9,528.1z"/>
		<path class="st0" d="M307,532.5l-12.4-2.2c-0.9-0.2-1.1-0.8-0.4-1.5l6.8-6.7c0.7-0.7,2-1.1,2.9-0.9l12.4,2.2
			c0.9,0.2,1.1,0.8,0.4,1.5l-6.8,6.7C309.2,532.2,307.9,532.6,307,532.5z"/>
		<path class="st0" d="M216.1,534.5l-12.4-2.2c-0.9-0.2-1.1-0.8-0.4-1.5l6.8-6.7c0.7-0.7,2-1.1,2.9-0.9l12.4,2.2
			c0.9,0.2,1.1,0.8,0.4,1.5l-6.8,6.7C218.2,534.2,216.9,534.6,216.1,534.5z"/>
		<path class="st0" d="M241.2,538.9l-12.4-2.2c-0.9-0.2-1.1-0.8-0.4-1.5l6.8-6.7c0.7-0.7,2-1.1,2.9-0.9l12.4,2.2
			c0.9,0.2,1.1,0.8,0.4,1.5l-6.8,6.7C243.4,538.6,242.1,539.1,241.2,538.9z"/>
		<path class="st0" d="M266.4,543.3l-12.4-2.2c-0.9-0.2-1.1-0.8-0.4-1.5l6.8-6.7c0.7-0.7,2-1.1,2.9-0.9l12.4,2.2
			c0.9,0.2,1.1,0.8,0.4,1.5l-6.8,6.7C268.6,543.1,267.3,543.5,266.4,543.3z"/>
		<path class="st0" d="M200.6,549.8l-12.4-2.2c-0.9-0.2-1.1-0.8-0.4-1.5l6.8-6.7c0.7-0.7,2-1.1,2.9-0.9l12.4,2.2
			c0.9,0.2,1.1,0.8,0.4,1.5l-6.8,6.7C202.7,549.5,201.5,549.9,200.6,549.8z"/>
		<path class="st0" d="M225.7,554.2l-12.4-2.2c-0.9-0.2-1.1-0.8-0.4-1.5l6.8-6.7c0.7-0.7,2-1.1,2.9-0.9l12.4,2.2
			c0.9,0.2,1.1,0.8,0.4,1.5l-6.8,6.7C227.9,553.9,226.6,554.3,225.7,554.2z"/>
		<path class="st0" d="M250.9,558.6l-12.4-2.2c-0.9-0.2-1.1-0.8-0.4-1.5l6.8-6.7c0.7-0.7,2-1.1,2.9-0.9l12.4,2.2
			c0.9,0.2,1.1,0.8,0.4,1.5l-6.8,6.7C253.1,558.3,251.8,558.8,250.9,558.6z"/>
	</g>
	<path class="st9" d="M299.9,537.1l-12.4-2.2c-0.9-0.2-2.2,0.3-2.9,0.9l-6.8,6.7l0,0l-14.9,14.7c-1,1-0.7,1.9,0.6,2.2l10.9,1.9
		c1.3,0.2,3.1-0.4,4.1-1.3l14.9-14.7l0,0l6.8-6.7C300.9,537.9,300.8,537.3,299.9,537.1z"/>
	<path class="st7" d="M341.9,482.6l-96.7-17.7c-1-0.2-2,0.8-2,2l-1.1,15.5c0,0,0,0,0,0l-0.2,3c-0.1,0.9,0.4,1.6,1.1,1.8l9.2,1.8l0,0
		l64.5,12.9l0-0.1l22.6,4.5c1.8,0.4,3.5-1.4,3.7-3.6l0.9-14c0,0,0,0,0,0l0.2-3C344.1,484.2,343.2,482.8,341.9,482.6z"/>
	<path class="st9" d="M336.5,487.1l-7.5-1.4l0,0l-59.1-11.2l0,0l-22.1-4.2c-0.9-0.2-1.8,0.4-1.8,1.2l-0.8,11.1c0,0.6,0.4,1.1,1,1.2
		l8.4,1.6l0,0l59.1,11.2l0,0l20.7,3.9c1.6,0.3,3.2-0.8,3.3-2.2l0.6-9C338.5,488.2,337.7,487.3,336.5,487.1z"/>
	<line class="st30" x1="242.8" y1="486.4" x2="339.1" y2="504.7"/>
	<line class="st30" x1="244.9" y1="467.4" x2="338.2" y2="484.4"/>
</g>
<line class="st31" x1="483.4" y1="276.1" x2="523.8" y2="284"/>
<polyline class="st15" points="310.4,362.7 310.4,340.2 331.5,344.5 "/>
<polyline class="st15" points="321.8,316.1 331.5,318 331.5,330.2 "/>
<line class="st15" x1="285.6" y1="286.8" x2="304.7" y2="290.6"/>
</svg>
